<svg xmlns="http://www.w3.org/2000/svg" width="25.486" height="28.565" viewBox="0 0 25.486 28.565"><defs><style>.a{fill:#f5f5be;}.b{fill:#ffbea3;}.c{fill:red;}.d{fill:#fff;}</style></defs><g transform="translate(-393.469 -188.61)"><g transform="translate(393.469 188.61)"><g transform="translate(0 0)"><circle class="a" cx="4.297" cy="4.297" r="4.297" transform="translate(6.986 19.971)"/><path class="a" d="M1.591,0h0A1.591,1.591,0,0,1,3.183,1.591V6.3a0,0,0,0,1,0,0H0a0,0,0,0,1,0,0V1.591A1.591,1.591,0,0,1,1.591,0Z" transform="translate(9.675)"/><path class="b" d="M435.158,227.621v-6.779h.016v-1.317a6.5,6.5,0,0,0-6.509-6.489h0a6.5,6.5,0,0,0-6.509,6.489v1.317h.016v6.779a6.078,6.078,0,0,1-4.79,5.933v.615h22.565v-.615A6.079,6.079,0,0,1,435.158,227.621Z" transform="translate(-417.383 -209.901)"/></g><g transform="translate(10.815 0.409)"><circle class="c" cx="7.335" cy="7.335" r="7.335"/><path class="d" d="M534.636,225.762h-1.493v-5.629a5.155,5.155,0,0,1-1.93,1.132V219.91a4.324,4.324,0,0,0,1.27-.726,2.752,2.752,0,0,0,.941-1.247h1.212Z" transform="translate(-525.834 -214.515)"/></g></g></g></svg>