<svg xmlns="http://www.w3.org/2000/svg" width="27.505" height="23.343" viewBox="0 0 27.505 23.343"><defs><style>.a{fill:#fff;stroke:#000;stroke-width:2px;}</style></defs><path class="a" d="M12.853.022c0,4.014,0,12.669,0,16.683l.295.126c1.5-1.539,3.013-3.066,4.5-4.623.426-.448.72-.549,1.185-.025a28.207,28.207,0,0,0,2.211,2.211c.417.377.391.578,0,.965q-4.942,4.89-9.833,9.831c-.374.377-.569.437-.98.021Q5.3,20.226.313,15.3c-.459-.454-.386-.713.04-1.1.71-.652,1.4-1.331,2.047-2.048.5-.551.861-.456,1.329.026,1.28,1.319,2.584,2.616,3.9,3.9.247.242.422.636.937.634V0Z" transform="translate(26.5 1) rotate(90)"/></svg>