<svg xmlns="http://www.w3.org/2000/svg" width="20.287" height="23.854" viewBox="0 0 20.287 23.854"><defs><style>.a{fill:#fff;stroke:#000;stroke-width:2px;}</style></defs><path class="a" d="M605.364,446.7c0,3.44,0,10.855,0,14.295l.252.108c1.286-1.318,2.582-2.627,3.853-3.961.365-.383.617-.471,1.015-.021a24.185,24.185,0,0,0,1.895,1.894c.357.323.335.5,0,.827q-4.234,4.19-8.425,8.423c-.32.323-.488.374-.839.018q-4.222-4.273-8.494-8.5c-.393-.389-.331-.611.034-.946.609-.559,1.2-1.14,1.754-1.755.425-.472.738-.391,1.139.022,1.1,1.13,2.214,2.241,3.338,3.344.212.208.361.545.8.543V446.681Z" transform="translate(-593.351 -445.676)"/></svg>