<svg xmlns="http://www.w3.org/2000/svg" width="40" height="21.32" viewBox="0 0 40 21.32"><defs><style>.a{fill:#e7304a;}.b{fill:#0b75bd;}.c{fill:#f4a001;}.d{fill:#9ac713;}.e{fill:#9bc714;}.f{fill:#0c75bd;}</style></defs><g transform="translate(0 0)"><path class="a" d="M562.439,729.25l7.615-3c.019.326.047.642.055.958.014.545.014,1.09.023,1.635a2.561,2.561,0,0,0,.054.661c-.968.351-1.935.611-2.9.949.039.777.141,1.517.211,2.3l2.438-.665c.1.678.147,1.346.2,2.038l-2.384.5.232,2.239,4.8-.98c.171,1.827.314,3.637.477,5.47l-7.093.762a3.084,3.084,0,0,1-.268-.8c-.69-2.372-1.367-4.749-2.051-7.124q-.688-2.392-1.383-4.782C562.456,729.372,562.454,729.335,562.439,729.25Z" transform="translate(-558.368 -720.79)"/><path class="b" d="M610.321,740.377c-.287.75-.525,1.524-.783,2.287q-.417,1.231-.833,2.464c-.24-.193-5.759-7.758-6.655-9.122l3.375-1.323,2.351,4.725,1.123-7.572c1.416-.073,2.832-.079,4.238-.081.055.094.014.156-.008.221q-.912,2.707-1.822,5.415c-.023.068-.034.141-.051.212-.052.169-.187.17-.3.215-.364.146-.733.274-1.125.476.137.574.294,1.1.445,1.634C610.318,740.073,610.408,740.213,610.321,740.377Z" transform="translate(-590.299 -725.06)"/><path class="c" d="M657.157,738.007c-.071-1.451-.139-2.828-.209-4.244l2.615-.314c.059.045.055.108.056.17q.064,3.287.072,6.576c0,.061,0,.122,0,.22a15.774,15.774,0,0,1-1.746.288c-.572.107-1.151.161-1.733.24l-1.279-2.352-.054.013c.064,1.055.128,2.11.194,3.2l-1.888.13.125-6.7h1.958Z" transform="translate(-630.729 -725.881)"/><path class="a" d="M685.371,753.044l-1.109-.465.654-2.151,3.375,1.244c-.091.731-.225,1.432-.351,2.172l-1.515-.5-.74,4.409-1.7-.807Z" transform="translate(-655.026 -739.532)"/><path class="d" d="M636.706,758.613l-.613-2.157,1.549-.617,1.424-.556v1.287l-1.08.354a4.073,4.073,0,0,0,.105.871l.89-.232c.127.25.049.515.1.769-.3.117-.6.093-.893.232a2.726,2.726,0,0,0,.087.832l1.819-.366c.11.693.123,1.379.2,2.049a14.514,14.514,0,0,1-2.768.359Z" transform="translate(-617.061 -743.295)"/><path class="c" d="M611.7,709.536l.923,1.729-1.831-.332-.893,1.507-.4-1.794-1.393-.987,1.4-.748c-.058-.669-.056-1.341-.084-2.081l1.2,1.314c.543-.143,1.069-.4,1.646-.593Z" transform="translate(-594.885 -704.544)"/><path class="a" d="M710.857,763.806l-7.066,4.676a.089.089,0,0,1-.115-.015l5.983-6.486Z" transform="translate(-670.857 -748.485)"/><path class="a" d="M545.46,759.6c1.769,2.391,3.525,4.743,5.263,7.113l-.046.06-6.335-5.5Z" transform="translate(-544.343 -746.643)"/><path class="b" d="M706.058,754.349l1.874,1.436-2.171,2.644-1.028-.864Z" transform="translate(-671.676 -742.216)"/><path class="b" d="M673.493,712.759l.359,1.126.992.207-.714.884c-.039.392.109.79.044,1.221l-.869-.751-.8.488c0-.384.136-.712.15-1.089l-.513-.988a6.615,6.615,0,0,0,.921.036Z" transform="translate(-645.55 -709.366)"/><path class="a" d="M636.659,698.432l-.934.328-.363,1.045-.466-1.12h-.839a6.027,6.027,0,0,1,.52-.776c.068-.372-.075-.722-.02-1.1a7.272,7.272,0,0,1,.69.5c.266-.176.471-.463.758-.642.023.359-.086.678-.073,1.06Z" transform="translate(-615.386 -696.666)"/><path class="a" d="M660.954,781.736c-.156.284-.2.625-.353.927-.185-.3-.27-.647-.43-.968-.236-.064-.493,0-.765-.047.109-.308.365-.467.474-.759.04-.318-.082-.631-.034-.968a6.608,6.608,0,0,1,.659.481,9.153,9.153,0,0,1,.718-.644l-.11.975c.192.266.45.428.669.686C661.523,781.579,661.234,781.59,660.954,781.736Z" transform="translate(-635.447 -762.264)"/><path class="e" d="M656.026,709.807l.129.984.765.4c-.232.258-.517.368-.745.6-.01.31-.093.615-.077.991-.3-.229-.421-.573-.656-.8-.245-.023-.476.153-.765.152L655,711.3l-.259-.923a5.822,5.822,0,0,1,.736.234C655.674,710.378,655.795,710.054,656.026,709.807Z" transform="translate(-631.696 -706.851)"/><path class="f" d="M700.453,772.01l.693-1.191,1.077.868a12.234,12.234,0,0,1-.768,1.062Z" transform="translate(-668.359 -755.108)"/></g></svg>