<svg xmlns="http://www.w3.org/2000/svg" width="25.619" height="20.923" viewBox="0 0 25.619 20.923"><defs><style>.a{fill:#3fa9f5;}.b{fill:#009245;}.c{fill:#c27428;stroke:#c27428;stroke-miterlimit:10;}.d{fill:#fcee21;}</style></defs><g transform="translate(-808.136 -652.949)"><g transform="translate(808.136 652.949)"><path d="M833.624,702.274H821.711c-.762,0-.9-.147-.9-.93q0-7.188,0-14.376c0-.735.168-.9.9-.9,2.532,0,5.063,0,7.595.007a.539.539,0,0,0,.534-.312c.674-1.128,1.363-2.246,2.055-3.363a1.957,1.957,0,0,1,3.475.02c.56.869,1.059,1.778,1.593,2.664a7.417,7.417,0,0,0,.581.858.542.542,0,0,0,.381.122c2.518.007,5.037,0,7.555,0,.812,0,.951.145.951.971q0,7.188,0,14.376c0,.692-.165.861-.851.861Zm4.8-7.132c.28-.211.538-.4.789-.6a.632.632,0,0,1,.842,0c.615.449,1.228.9,1.847,1.345.244.174.5.326.774.5v-6.725H824.564v6.7l.674-.549a2.961,2.961,0,0,1,3.149-4.1,3.326,3.326,0,0,1,2.223,1.371c.059-.051.11-.093.159-.137.538-.491.623-.485,1.17-.007.338.3.694.572,1.045.859.133-.107.237-.19.34-.275.5-.41.693-.4,1.159.047.445.422.9.83,1.365,1.251.156-.11.314-.207.456-.323s.293-.277.447-.408a.549.549,0,0,1,.9.075C837.9,694.471,838.135,694.782,838.421,695.142Zm-1.317-.074c-.292.268-.524.489-.766.7a.591.591,0,0,1-.943-.021c-.36-.339-.729-.668-1.087-1.009-.434-.414-.436-.424-.9-.038-.268.225-.521.309-.816.05-.321-.281-.664-.536-.976-.826-.18-.167-.291-.206-.49-.009-.648.641-1.308,1.27-1.988,1.876-.432.385-.736.582-1.213.027-.084-.1-.234-.134-.32-.231-.159-.178-.273-.124-.436,0-.664.515-1.337,1.017-2.012,1.517a1.218,1.218,0,0,0-.565,1.6h18.1a3.189,3.189,0,0,1,.005-.553c.079-.419-.136-.637-.449-.847-.719-.483-1.425-.985-2.124-1.5-.553-.407-.549-.419-1.041.094.2.246.39.508.612.737.256.263.315.53.117.728a.547.547,0,0,1-.785-.029c-.331-.367-.653-.743-.974-1.12S837.446,695.478,837.1,695.068Zm-14.054-7.759c.314.337.565.636.849.9a.784.784,0,0,0,.477.208q9.21.015,18.421.006a.553.553,0,0,0,.337-.071c.356-.312.693-.646,1.107-1.039Zm21.178,13.737c-.335-.33-.586-.61-.871-.845a.972.972,0,0,0-.548-.249q-9.212-.019-18.425-.006a.569.569,0,0,0-.366.1c-.316.3-.607.633-.954,1Zm.922-12.859c-.364.341-.687.62-.978.929a.732.732,0,0,0-.187.452q-.017,4.609-.009,9.218c0,.106-.012.25.047.311.352.366.724.712,1.128,1.1Zm-23.056,12.005c.39-.369.75-.7,1.09-1.044a.539.539,0,0,0,.077-.339q0-4.631,0-9.262c0-.1,0-.242-.06-.3-.347-.352-.713-.686-1.1-1.056Zm14.356-14.137c-.2-.286-.365-.491-.5-.713-.48-.79-.946-1.589-1.426-2.38-.525-.866-1.236-.88-1.778-.031-.36.563-.7,1.139-1.053,1.708-.283.458-.57.914-.883,1.416ZM828.482,695c.24-.2.474-.371.69-.566s.42-.413.62-.612a2,2,0,0,0-2.642-1,1.752,1.752,0,0,0-1.014,2.305c.086-.063.17-.128.257-.187C827.468,694.221,827.468,694.221,828.482,695Z" transform="translate(-820.808 -681.352)"/><path class="a" d="M860.973,743.989c-.283-.361-.518-.671-.765-.971a.541.541,0,0,0-.889-.075c-.152.13-.288.281-.442.408s-.3.214-.451.323c-.456-.421-.911-.829-1.351-1.251-.462-.443-.655-.457-1.148-.047-.1.085-.205.168-.336.275-.347-.287-.7-.563-1.034-.859-.541-.479-.625-.484-1.158.007-.048.044-.1.086-.157.137a3.288,3.288,0,0,0-2.2-1.371,2.762,2.762,0,0,0-2.04.46,2.816,2.816,0,0,0-1.077,3.639l-.668.549v-6.7h17.927v6.725c-.268-.174-.525-.326-.766-.5-.613-.443-1.22-.9-1.829-1.345a.622.622,0,0,0-.833,0C861.505,743.59,861.25,743.778,860.973,743.989Z" transform="translate(-843.408 -730.199)"/><path class="b" d="M859.313,768.086c.338.41.639.781.947,1.146s.637.752.965,1.12a.538.538,0,0,0,.777.029c.2-.2.138-.465-.116-.728-.22-.229-.407-.492-.606-.737.487-.513.482-.5,1.03-.094.691.513,1.391,1.016,2.1,1.5a.776.776,0,0,1,.445.847,3.22,3.22,0,0,0-.005.553H846.928a1.223,1.223,0,0,1,.559-1.6c.668-.5,1.335-1,1.992-1.517.162-.127.275-.18.432,0,.085.1.233.133.316.231.473.555.774.358,1.2-.027.673-.606,1.326-1.236,1.968-1.876.2-.2.307-.158.485.009.31.29.649.545.967.826.292.259.543.175.808-.05.456-.386.457-.377.887.038.354.342.719.671,1.076,1.009a.582.582,0,0,0,.934.021C858.794,768.575,859.024,768.354,859.313,768.086Z" transform="translate(-843.051 -754.37)"/><path class="c" d="M836.591,722.3h21.084c-.411.392-.747.727-1.1,1.039a.548.548,0,0,1-.336.071q-9.164,0-18.328-.006a.778.778,0,0,1-.474-.208C837.153,722.937,836.9,722.638,836.591,722.3Z" transform="translate(-834.295 -716.344)"/><path class="c" d="M857.741,810.253H836.685c.345-.369.634-.7.949-1a.563.563,0,0,1,.364-.1q9.165-.007,18.331.006a.964.964,0,0,1,.545.249C857.158,809.643,857.408,809.922,857.741,810.253Z" transform="translate(-834.375 -790.559)"/><path class="c" d="M985.119,728.339v12.013c-.414-.391-.794-.738-1.155-1.1-.06-.061-.048-.206-.048-.311q0-4.609.009-9.218a.724.724,0,0,1,.192-.452C984.415,728.958,984.746,728.68,985.119,728.339Z" transform="translate(-960.809 -721.504)"/><path class="c" d="M829.856,740.349v-12c.4.37.776.7,1.132,1.056.061.061.061.2.061.3q.006,4.631,0,9.262a.529.529,0,0,1-.079.339C830.625,739.654,830.255,739.981,829.856,740.349Z" transform="translate(-828.54 -721.509)"/><path class="d" d="M859.8,761.429c-1.038-.778-1.039-.778-2.139-.055-.09.059-.175.124-.263.187a1.738,1.738,0,0,1,1.039-2.305,2.074,2.074,0,0,1,2.706,1c-.205.2-.411.415-.635.612S860.047,761.234,859.8,761.429Z" transform="translate(-852.089 -747.782)"/><path d="M906.41,691.707a.725.725,0,0,1,.793.732.741.741,0,0,1-.78.755.765.765,0,0,1-.785-.762A.747.747,0,0,1,906.41,691.707Z" transform="translate(-893.609 -690.201)"/></g></g></svg>