<svg xmlns="http://www.w3.org/2000/svg" width="26.33" height="26.329" viewBox="0 0 26.33 26.329"><defs><style>.a{fill:#fff;}</style></defs><path d="M448.727,325h.411a4.877,4.877,0,0,1,.7.45q5.8,5.254,11.586,10.521a2.27,2.27,0,0,1,.667.856v.463a.276.276,0,0,0-.043.061,1.091,1.091,0,0,1-1.827.5c-.094-.08-.185-.165-.328-.293v.368q0,6.042,0,12.084a2.089,2.089,0,0,1-.041.509,1.109,1.109,0,0,1-1.214.814H439.231a2.417,2.417,0,0,1-.257-.006,1,1,0,0,1-.861-.565,1.794,1.794,0,0,1-.141-.717q-.012-6.068-.006-12.135v-.341c-.182.154-.307.271-.443.373a1.085,1.085,0,0,1-1.6-.318,1.118,1.118,0,0,1,.321-1.467q5.84-5.309,11.684-10.614A6.429,6.429,0,0,1,448.727,325Zm8.985,24.115v-.231q0-6.555-.007-13.111a.557.557,0,0,0-.17-.364q-4.167-3.8-8.345-7.6c-.081-.073-.164-.144-.259-.227-.09.08-.167.146-.242.214q-4.185,3.8-8.372,7.606a.482.482,0,0,0-.167.4q0,6.517,0,13.034v.271h4.4v-.322c0-2.022-.005-4.045,0-6.067a5.114,5.114,0,0,1,.108-1.12,4.373,4.373,0,0,1,8.639.717c.036,2.159.014,4.319.017,6.478,0,.1,0,.2,0,.318Zm-6.582,0V348.8q0-2.879,0-5.758c0-.248-.012-.5-.033-.743a2.184,2.184,0,0,0-2.729-1.856,2.208,2.208,0,0,0-1.631,2.252c-.005,2.065,0,4.13,0,6.195,0,.075.009.149.014.228Z" transform="translate(-435.767 -325)"/><path class="a" d="M521.4,386.674H517c0-.116,0-.217,0-.318,0-2.159.018-4.319-.017-6.478a4.373,4.373,0,0,0-8.639-.717,5.118,5.118,0,0,0-.108,1.121c-.01,2.022,0,4.045,0,6.067v.322h-4.4V386.4q0-6.517,0-13.034a.482.482,0,0,1,.167-.4q4.19-3.8,8.372-7.606c.075-.068.151-.134.242-.214.095.083.179.153.259.227q4.175,3.8,8.345,7.6a.557.557,0,0,1,.17.364q.013,6.555.007,13.111Z" transform="translate(-499.453 -362.559)"/><path class="a" d="M610.455,572.228h-4.38c-.005-.079-.014-.154-.014-.228,0-2.065,0-4.13,0-6.195a2.208,2.208,0,0,1,1.631-2.252,2.184,2.184,0,0,1,2.729,1.856c.02.247.032.5.033.743q0,2.879,0,5.758Z" transform="translate(-595.091 -548.114)"/></svg>