<svg xmlns="http://www.w3.org/2000/svg" width="343.985" height="54.713" viewBox="0 0 343.985 54.713"><defs><style>.a{fill:#e47e1c;}.b{fill:none;stroke:#000;stroke-linecap:round;stroke-linejoin:round;stroke-width:6px;}.c{fill:#5b98d1;}</style></defs><g transform="translate(-67.75 -53.643)"><path d="M578.084,67.7a.779.779,0,0,1-.971.949h-7.807a2.265,2.265,0,0,1-1.79-.582,2.487,2.487,0,0,1-.5-1.661V64.124a1.29,1.29,0,0,1,.356-.971,1.382,1.382,0,0,1,1-.345h6.038c.043,0,.065-.036.065-.108v-.906h-6.491a.779.779,0,0,1-.971-.949v-.517a.779.779,0,0,1,.971-.949h8.217a1.494,1.494,0,0,1,1.024.3,1.284,1.284,0,0,1,.334.992v3.17a1.192,1.192,0,0,1-1.337,1.359H570.1v.733a.431.431,0,0,0,.054.259q.054.064.27.065h6.685a.779.779,0,0,1,.971.949Zm5.262,8.907q0,1.4-1.337,1.4h-10.5q-1.985,0-1.984-2.092V70.594a1.017,1.017,0,0,1,.227-.755.986.986,0,0,1,.7-.216h1.272a.947.947,0,0,1,.69.216,1.053,1.053,0,0,1,.216.755v.755h7.612v-.755q0-.97.906-.971h1.294q.906,0,.906.971Zm-3.256-1.057c.1,0,.151-.057.151-.172V73.828h-7.612v1.445a.4.4,0,0,0,.043.226.251.251,0,0,0,.194.054Zm3.256-7.785q0,1.014-.906,1.014h-1.294q-.906,0-.906-1.014v-8.2q0-.97.906-.97h1.294q.906,0,.906.97Z" transform="translate(-307.765 -1.215)"/><g transform="translate(86.959 76.198)"><path class="a" d="M9.937,0h0a9.937,9.937,0,0,1,9.937,9.937V32.157a0,0,0,0,1,0,0H0a0,0,0,0,1,0,0V9.937A9.937,9.937,0,0,1,9.937,0Z" transform="translate(30.069)"/><path class="a" d="M9.937,0h0a9.937,9.937,0,0,1,9.937,9.937V32.157a0,0,0,0,1,0,0H0a0,0,0,0,1,0,0V9.937A9.937,9.937,0,0,1,9.937,0Z"/><path class="a" d="M9.937,0h0a9.937,9.937,0,0,1,9.937,9.937V32.157a0,0,0,0,1,0,0H0a0,0,0,0,1,0,0V9.937A9.937,9.937,0,0,1,9.937,0Z" transform="translate(61.126)"/></g><path class="b" d="M70.75,71.723H84.862V56.643h84.215v15.2h18.209" transform="translate(0 0)"/><g transform="translate(292.199 56.643)"><g transform="translate(16.209 19.555)"><path class="c" d="M9.937,0h0a9.937,9.937,0,0,1,9.937,9.937V32.157a0,0,0,0,1,0,0H0a0,0,0,0,1,0,0V9.937A9.937,9.937,0,0,1,9.937,0Z" transform="translate(30.069)"/><path class="c" d="M9.937,0h0a9.937,9.937,0,0,1,9.937,9.937V32.157a0,0,0,0,1,0,0H0a0,0,0,0,1,0,0V9.937A9.937,9.937,0,0,1,9.937,0Z"/><path class="c" d="M9.937,0h0a9.937,9.937,0,0,1,9.937,9.937V32.157a0,0,0,0,1,0,0H0a0,0,0,0,1,0,0V9.937A9.937,9.937,0,0,1,9.937,0Z" transform="translate(61.126)"/></g><path class="b" d="M653.75,71.723h14.112V56.643h84.215v15.2h18.209" transform="translate(-653.75 -56.643)"/></g><path d="M420.058,61.521l2.976,10.5a1.578,1.578,0,0,1,.086.938.883.883,0,0,1-.669.55l-.906.259a1.2,1.2,0,0,1-.982-.011,1.47,1.47,0,0,1-.463-.83L417.492,63.4a.767.767,0,0,0-.151-.323.1.1,0,0,0-.173.011.907.907,0,0,0-.151.377l-2.588,9.6a1.5,1.5,0,0,1-.5.863,1.27,1.27,0,0,1-.992,0l-.906-.259a.877.877,0,0,1-.679-.507,1.517,1.517,0,0,1,.076-.938l3.062-10.675a1.872,1.872,0,0,1,1.876-1.6h1.876a1.78,1.78,0,0,1,1.121.334A2.359,2.359,0,0,1,420.058,61.521Zm8.691,14.406q0,.97-.906.97h-1.272q-.906,0-.906-.97V67h-2.7a1.12,1.12,0,0,1-.8-.205,1.088,1.088,0,0,1-.194-.744v-.971a.79.79,0,0,1,.992-.971h2.7V60.141q0-.971.906-.971h1.272q.906,0,.906.971Z" transform="translate(-211.201 -1.567)"/><path d="M481.608,67.629a1.047,1.047,0,0,1-.194.722,1.08,1.08,0,0,1-.776.205h-5.931v1.25h4.227a1.282,1.282,0,0,1,.949.291,1.357,1.357,0,0,1,.28.959v2.631a1.191,1.191,0,0,1-1.359,1.337h-9.683v.539c0,.13.05.194.151.194h10.352a1.047,1.047,0,0,1,.765.215,1.091,1.091,0,0,1,.2.755v.41a1.05,1.05,0,0,1-.2.744,1.086,1.086,0,0,1-.765.2H468.13a2.27,2.27,0,0,1-1.7-.528,2.139,2.139,0,0,1-.5-1.52V74.013a1.036,1.036,0,0,1,1.229-1.23h9.7q.129,0,.129-.107v-.561H466.9a1.119,1.119,0,0,1-.8-.2,1.086,1.086,0,0,1-.194-.744v-.388a.806.806,0,0,1,.992-.971h4.464v-1.25h-5.888a1.12,1.12,0,0,1-.8-.205,1.049,1.049,0,0,1-.194-.722v-.647a1.091,1.091,0,0,1,.194-.744,1.123,1.123,0,0,1,.8-.2h15.161a.779.779,0,0,1,.971.949Zm-2.836-8.454a3.02,3.02,0,0,1-.011,5.273,8.9,8.9,0,0,1-4.68.981h-2.048a8.887,8.887,0,0,1-4.68-.992,2.991,2.991,0,0,1-.011-5.262,9.043,9.043,0,0,1,4.691-.97h2.048A8.974,8.974,0,0,1,478.772,59.175Zm-1.65,2.653q0-1.165-3.235-1.165h-1.66a7.59,7.59,0,0,0-2.534.291q-.723.291-.723.874,0,1.121,3.257,1.121h1.66Q477.123,62.95,477.122,61.828Z" transform="translate(-244.177 -0.969)"/><path d="M522.594,61.521l3.3,10.5a1.393,1.393,0,0,1,.086.938.95.95,0,0,1-.669.528l-.906.28a1.136,1.136,0,0,1-.971.011,1.622,1.622,0,0,1-.474-.852L520.028,63.4q-.216-.712-.474.065l-2.911,9.6a1.623,1.623,0,0,1-.507.863,1.24,1.24,0,0,1-.981,0l-.906-.259q-.992-.28-.6-1.445l3.386-10.675a2.482,2.482,0,0,1,.722-1.251,1.751,1.751,0,0,1,1.11-.345h1.963a1.645,1.645,0,0,1,1.089.334A2.625,2.625,0,0,1,522.594,61.521Zm8.173,14.406q0,.97-.927.97h-1.273q-.905,0-.906-.97V60.141q0-.971.906-.971h1.273q.927,0,.927.971Z" transform="translate(-274.596 -1.567)"/><path d="M453.822,148.613a1.22,1.22,0,0,1-1.38,1.38h-7.052a2.027,2.027,0,0,1-1.6-.582,2.186,2.186,0,0,1-.518-1.509V137.786a1.356,1.356,0,0,1,.28-.96,1.283,1.283,0,0,1,.949-.291h7.979a1.475,1.475,0,0,1,1.035.291,1.361,1.361,0,0,1,.3,1Zm-3.106-1.467V139.3h-4.334v7.677q0,.28.194.28h4.033A.1.1,0,0,0,450.716,147.146Zm8.67,5.047q0,.97-.927.971h-1.272q-.906,0-.906-.971V136.406q0-.971.906-.97h1.272q.926,0,.927.97Z" transform="translate(-231.024 -48.864)"/><path d="M510.02,143.744a1.05,1.05,0,0,1-.194.722,1.081,1.081,0,0,1-.776.2h-5.93v1.4h4.227a1.281,1.281,0,0,1,.949.291,1.357,1.357,0,0,1,.28.959v2.631a1.191,1.191,0,0,1-1.359,1.337h-9.683v.539q0,.194.151.194h10.351a1.047,1.047,0,0,1,.766.215,1.092,1.092,0,0,1,.205.755v.41a1.05,1.05,0,0,1-.205.744,1.088,1.088,0,0,1-.766.2H496.542a2.271,2.271,0,0,1-1.7-.528,2.141,2.141,0,0,1-.5-1.521v-2.027a1.035,1.035,0,0,1,1.23-1.229h9.7c.087,0,.13-.036.13-.108v-.561H495.313a1.119,1.119,0,0,1-.8-.2,1.086,1.086,0,0,1-.194-.744v-.388a.805.805,0,0,1,.992-.97h4.464v-1.4h-5.887a1.121,1.121,0,0,1-.8-.2,1.05,1.05,0,0,1-.194-.722V143.1a1.09,1.09,0,0,1,.194-.744,1.122,1.122,0,0,1,.8-.205H509.05a.779.779,0,0,1,.97.949Zm-.582-3.235-.6.669a1.033,1.033,0,0,1-.744.388,2.044,2.044,0,0,1-.917-.431l-4.637-3.321a1.374,1.374,0,0,0-2.113,0l-4.68,3.343a1.88,1.88,0,0,1-.884.4,1.145,1.145,0,0,1-.755-.4l-.517-.561a1.307,1.307,0,0,1-.463-.841.965.965,0,0,1,.485-.691l5.413-3.86a4.16,4.16,0,0,1,.992-.593,3.124,3.124,0,0,1,1.035-.14h.841a2.952,2.952,0,0,1,.992.129,5.079,5.079,0,0,1,.992.582l5.521,3.947Q510.171,139.69,509.438,140.509Z" transform="translate(-261.797 -48.265)"/><path d="M555.655,145.5a.817.817,0,0,1-.194.615,1.051,1.051,0,0,1-.626.227q-3.234.323-5.952.323h-5.564a.779.779,0,0,1-.97-.949v-.755a.779.779,0,0,1,.97-.949h2.739v-3.041a1.089,1.089,0,0,1,.205-.755.94.94,0,0,1,.7-.215h1.294a.983.983,0,0,1,.712.215,1.055,1.055,0,0,1,.216.755v3.041q2.8,0,5.585-.259a.965.965,0,0,1,.679.119.816.816,0,0,1,.205.658Zm-1.51-8.346v4.68q0,1.014-.905,1.014h-1.251q-.927,0-.927-1.014V138.3a.4.4,0,0,0-.043-.226c-.029-.036-.1-.054-.216-.054h-6.4a.779.779,0,0,1-.97-.949V136.4a.779.779,0,0,1,.97-.949H552.2a2.456,2.456,0,0,1,1.564.345A1.839,1.839,0,0,1,554.145,137.154Zm5.78,16.175a.779.779,0,0,1-.971.948H547.46a2.256,2.256,0,0,1-1.6-.474,1.944,1.944,0,0,1-.5-1.467v-3.645q0-.991.906-.992h1.38q.905,0,.906.992v2.5c0,.23.086.345.259.345h10.136a.779.779,0,0,1,.971.949Zm-.5-5.025q0,.992-.927.992h-1.272q-.907,0-.906-.992V135.838q0-.97.906-.97H558.5q.927,0,.927.97v3.817h1.617a1.166,1.166,0,0,1,.8.194,1.042,1.042,0,0,1,.194.733v.884a1.086,1.086,0,0,1-.194.744,1.121,1.121,0,0,1-.8.2h-1.617Z" transform="translate(-292.465 -48.512)"/></g></svg>