<svg xmlns="http://www.w3.org/2000/svg" width="169.482" height="32.939" viewBox="0 0 169.482 32.939"><defs><style>.a{fill:#286b61;}.b{fill:none;stroke:#000;stroke-linecap:round;stroke-linejoin:round;stroke-width:3px;}</style></defs><g transform="translate(1.5 1.5)"><path d="M3290.851-329.1a.662.662,0,0,1-.118.452.658.658,0,0,1-.472.125h-4.746a1.377,1.377,0,0,1-1.088-.354,1.513,1.513,0,0,1-.3-1.01v-1.39a.783.783,0,0,1,.217-.59.839.839,0,0,1,.609-.21h3.671c.026,0,.04-.022.04-.066v-.551h-3.947a.655.655,0,0,1-.472-.125.658.658,0,0,1-.118-.452v-.315a.659.659,0,0,1,.118-.452.657.657,0,0,1,.472-.125h5a.909.909,0,0,1,.623.183.78.78,0,0,1,.2.6v1.927a.724.724,0,0,1-.812.826H3286v.446a.261.261,0,0,0,.033.157c.022.026.076.039.164.039h4.064a.659.659,0,0,1,.472.124.662.662,0,0,1,.118.452Zm3.2,5.415q0,.852-.813.852h-6.385q-1.206,0-1.206-1.272v-3.238a.619.619,0,0,1,.137-.459.6.6,0,0,1,.426-.131h.774a.574.574,0,0,1,.419.131.642.642,0,0,1,.131.459v.459h4.628v-.459q0-.59.55-.59h.787q.55,0,.551.59Zm-1.98-.642c.061,0,.092-.035.092-.1v-.944h-4.628v.878a.241.241,0,0,0,.026.138.153.153,0,0,0,.118.033Zm1.98-4.733q0,.617-.551.616h-.787q-.55,0-.55-.616v-4.982q0-.59.55-.59h.787q.55,0,.551.59Z" transform="translate(-3169.524 344.452)"/><g transform="translate(0 0)"><g transform="translate(9.854 11.889)"><path class="a" d="M6.041,0h0a6.041,6.041,0,0,1,6.041,6.041V19.55a0,0,0,0,1,0,0H0a0,0,0,0,1,0,0V6.041A6.041,6.041,0,0,1,6.041,0Z" transform="translate(18.28)"/><path class="a" d="M6.041,0h0a6.041,6.041,0,0,1,6.041,6.041V19.55a0,0,0,0,1,0,0H0a0,0,0,0,1,0,0V6.041A6.041,6.041,0,0,1,6.041,0Z"/><path class="a" d="M6.041,0h0a6.041,6.041,0,0,1,6.041,6.041V19.55a0,0,0,0,1,0,0H0a0,0,0,0,1,0,0V6.041A6.041,6.041,0,0,1,6.041,0Z" transform="translate(37.161)"/></g><path class="b" d="M2787.854-367.987h8.579v-9.168h51.2v9.243h11.07" transform="translate(-2787.854 377.155)"/></g><path d="M3133.732-330.989l1.809,6.385a.955.955,0,0,1,.052.57.537.537,0,0,1-.406.334l-.55.157a.729.729,0,0,1-.6-.007.89.89,0,0,1-.282-.5l-1.587-5.8a.465.465,0,0,0-.091-.2.064.064,0,0,0-.1.007.539.539,0,0,0-.092.229l-1.573,5.834a.911.911,0,0,1-.3.524.773.773,0,0,1-.6,0l-.551-.157a.533.533,0,0,1-.413-.308.922.922,0,0,1,.045-.57l1.862-6.49a1.138,1.138,0,0,1,1.141-.97h1.141a1.081,1.081,0,0,1,.681.2A1.431,1.431,0,0,1,3133.732-330.989Zm5.283,8.758q0,.59-.55.59h-.773q-.552,0-.551-.59v-5.428H3135.5a.678.678,0,0,1-.485-.125.658.658,0,0,1-.118-.452v-.59a.684.684,0,0,1,.118-.466.68.68,0,0,1,.485-.124h1.639v-2.412q0-.59.551-.59h.773q.55,0,.55.59Z" transform="translate(-3049.771 342.749)"/><path d="M3192-329.528a.637.637,0,0,1-.119.439.655.655,0,0,1-.472.125H3187.8v.76h2.57a.781.781,0,0,1,.577.177.824.824,0,0,1,.17.584v1.6a.724.724,0,0,1-.826.813h-5.886v.328c0,.079.031.118.092.118h6.293a.636.636,0,0,1,.465.131.662.662,0,0,1,.125.459v.249a.638.638,0,0,1-.125.452.66.66,0,0,1-.465.124H3183.8a1.38,1.38,0,0,1-1.036-.321,1.3,1.3,0,0,1-.3-.924v-1.232a.8.8,0,0,1,.171-.577.8.8,0,0,1,.577-.17h5.9c.052,0,.079-.022.079-.066v-.341h-6.136a.681.681,0,0,1-.485-.125.659.659,0,0,1-.119-.452v-.236a.664.664,0,0,1,.125-.459.66.66,0,0,1,.479-.131h2.714v-.76h-3.579a.682.682,0,0,1-.485-.125.64.64,0,0,1-.118-.439v-.393a.664.664,0,0,1,.118-.452.682.682,0,0,1,.485-.124h9.217a.655.655,0,0,1,.472.124.661.661,0,0,1,.119.452Zm-1.725-5.139a1.81,1.81,0,0,1,.938,1.6,1.822,1.822,0,0,1-.944,1.606,5.406,5.406,0,0,1-2.845.6h-1.246a5.4,5.4,0,0,1-2.845-.6,1.823,1.823,0,0,1-.957-1.6,1.8,1.8,0,0,1,.95-1.6,5.5,5.5,0,0,1,2.852-.59h1.246A5.454,5.454,0,0,1,3190.275-334.667Zm-1,1.613q0-.708-1.966-.708h-1.01a4.612,4.612,0,0,0-1.54.177q-.439.177-.44.531,0,.682,1.98.682h1.01Q3189.272-332.372,3189.272-333.054Z" transform="translate(-3090.666 344.932)"/><path d="M3236.146-330.989l2.006,6.385a.847.847,0,0,1,.053.57.579.579,0,0,1-.407.321l-.55.17a.691.691,0,0,1-.59.006.985.985,0,0,1-.289-.518l-1.783-5.8q-.131-.432-.288.039l-1.77,5.834a.989.989,0,0,1-.308.524.755.755,0,0,1-.6,0l-.551-.157q-.6-.171-.367-.879l2.059-6.49a1.512,1.512,0,0,1,.438-.76,1.067,1.067,0,0,1,.676-.21h1.193a1,1,0,0,1,.662.2A1.6,1.6,0,0,1,3236.146-330.989Zm4.969,8.758q0,.59-.563.59h-.774q-.551,0-.551-.59v-9.6q0-.59.551-.59h.774q.563,0,.563.59Z" transform="translate(-3128.389 342.749)"/><path d="M3370.791-324.407a.742.742,0,0,1-.839.839h-4.287a1.232,1.232,0,0,1-.97-.354,1.329,1.329,0,0,1-.315-.918v-6.149a.819.819,0,0,1,.171-.584.779.779,0,0,1,.577-.177h4.851a.9.9,0,0,1,.629.177.829.829,0,0,1,.184.61Zm-1.888-.892v-4.772h-2.636v4.667c0,.114.04.17.118.17h2.452A.058.058,0,0,0,3368.9-325.3Zm5.27,3.068q0,.59-.564.59h-.773q-.551,0-.551-.59v-9.6q0-.59.551-.59h.773q.564,0,.564.59Z" transform="translate(-3231.246 342.749)"/><path d="M3424.411-329.619a.638.638,0,0,1-.118.439.656.656,0,0,1-.472.124h-3.605v.852h2.57a.78.78,0,0,1,.577.177.826.826,0,0,1,.17.584v1.6a.724.724,0,0,1-.826.813h-5.887v.328c0,.079.031.118.092.118h6.293a.638.638,0,0,1,.466.131.665.665,0,0,1,.125.459v.249a.64.64,0,0,1-.125.452.663.663,0,0,1-.466.124h-6.988a1.378,1.378,0,0,1-1.036-.321,1.3,1.3,0,0,1-.3-.924v-1.232a.8.8,0,0,1,.17-.577.8.8,0,0,1,.577-.17h5.9c.052,0,.079-.022.079-.066v-.341h-6.136a.681.681,0,0,1-.485-.125.662.662,0,0,1-.118-.452v-.236a.664.664,0,0,1,.125-.459.661.661,0,0,1,.479-.131h2.714v-.852H3414.6a.681.681,0,0,1-.485-.124.638.638,0,0,1-.118-.439v-.393a.662.662,0,0,1,.118-.452.681.681,0,0,1,.485-.124h9.217a.657.657,0,0,1,.472.124.662.662,0,0,1,.118.452Zm-.354-1.967-.367.406a.628.628,0,0,1-.452.236,1.237,1.237,0,0,1-.557-.262l-2.819-2.019a1.3,1.3,0,0,0-.643-.3,1.3,1.3,0,0,0-.643.3l-2.845,2.032a1.136,1.136,0,0,1-.537.243.694.694,0,0,1-.459-.243l-.315-.341a.8.8,0,0,1-.282-.511.586.586,0,0,1,.295-.42l3.291-2.347a2.535,2.535,0,0,1,.6-.361,1.9,1.9,0,0,1,.63-.085h.511a1.8,1.8,0,0,1,.6.078,3.1,3.1,0,0,1,.6.354l3.356,2.4Q3424.5-332.084,3424.057-331.586Z" transform="translate(-3269.408 344.932)"/><path d="M3471.542-328.168a.5.5,0,0,1-.118.374.638.638,0,0,1-.38.138q-1.967.2-3.619.2h-3.382a.658.658,0,0,1-.472-.125.664.664,0,0,1-.118-.452v-.459a.665.665,0,0,1,.118-.452.659.659,0,0,1,.472-.125h1.665v-1.849a.663.663,0,0,1,.125-.459.572.572,0,0,1,.426-.131h.787a.6.6,0,0,1,.433.131.642.642,0,0,1,.13.459v1.849q1.705,0,3.4-.157a.587.587,0,0,1,.413.072.5.5,0,0,1,.125.4Zm-.918-5.074v2.845q0,.617-.55.616h-.761q-.564,0-.563-.616v-2.15a.242.242,0,0,0-.026-.138c-.018-.021-.061-.033-.131-.033H3464.7a.657.657,0,0,1-.472-.125.661.661,0,0,1-.118-.452v-.407a.662.662,0,0,1,.118-.452.658.658,0,0,1,.472-.125h4.746a1.494,1.494,0,0,1,.951.21A1.12,1.12,0,0,1,3470.624-333.242Zm3.514,9.833a.664.664,0,0,1-.118.452.659.659,0,0,1-.472.125h-6.988a1.369,1.369,0,0,1-.97-.288,1.182,1.182,0,0,1-.3-.891v-2.216q0-.6.551-.6h.839q.551,0,.551.6v1.521c0,.14.052.21.157.21h6.162a.657.657,0,0,1,.472.124.664.664,0,0,1,.118.452Zm-.3-3.055q0,.6-.564.6h-.773q-.551,0-.551-.6v-7.578q0-.59.551-.59h.773q.564,0,.564.59v2.321h.983a.708.708,0,0,1,.485.118.634.634,0,0,1,.118.446v.538a.661.661,0,0,1-.118.452.681.681,0,0,1-.485.125h-.983Z" transform="translate(-3307.44 344.452)"/></g></svg>