<svg xmlns="http://www.w3.org/2000/svg" width="25.446" height="25.445" viewBox="0 0 25.446 25.445"><defs><style>.a{fill:#2e3192;}</style></defs><g transform="translate(-205.892 -371.458) rotate(9)"><path class="a" d="M272.779,347.653a6.341,6.341,0,0,1,.79-3.223,7.075,7.075,0,0,1,.826-1.279,3.811,3.811,0,0,1,2.494-1.113,1.219,1.219,0,0,1,1.47.741c.455.887.973,1.743,1.469,2.608.27.47.553.932.827,1.4a.841.841,0,0,1-.084,1.161c-.408.432-.878.8-1.315,1.21q-.536.5-1.059,1.008a.617.617,0,0,0-.14.692,3.235,3.235,0,0,0,.192.482,17.839,17.839,0,0,0,3.8,4.968,20.077,20.077,0,0,0,3.69,2.489c.646.351.931.287,1.43-.257.463-.5.9-1.031,1.358-1.539a6.8,6.8,0,0,1,.63-.611.794.794,0,0,1,.971-.083c1.485.855,2.96,1.726,4.446,2.579a.813.813,0,0,1,.429.9c-.04.312-.071.625-.126.935a3.485,3.485,0,0,1-2.032,2.615,7.541,7.541,0,0,1-2.963.906,7.3,7.3,0,0,1-2.739-.466,19.767,19.767,0,0,1-5.85-2.929,22.33,22.33,0,0,1-7-8.309,16.839,16.839,0,0,1-1.446-4.271C272.812,348.07,272.8,347.874,272.779,347.653Z" transform="translate(-7.869 -7.872)"/></g></svg>