<svg xmlns="http://www.w3.org/2000/svg" width="23.707" height="23.722" viewBox="0 0 23.707 23.722"><defs><style>.a{fill:none;}.a,.b,.c{stroke:#000;stroke-miterlimit:10;}.a,.b{stroke-width:2px;}.b{fill:#4d4d4d;}.c{fill:#999;stroke-width:1.706px;}</style></defs><g transform="translate(-807.75 -334.234)"><g transform="translate(808.604 335.088)"><path class="a" d="M858.942,391.4a6,6,0,1,1,6-5.987A6,6,0,0,1,858.942,391.4Z" transform="translate(-847.988 -374.443)"/><g transform="translate(0 0)"><path class="b" d="M858.942,391.4a6,6,0,1,1,6-5.987A6,6,0,0,1,858.942,391.4Z" transform="translate(-847.988 -374.443)"/><path class="c" d="M844.229,358.35v2.638c-.086,0-.172.011-.258.011-.76,0-1.52.005-2.28,0a.318.318,0,0,0-.368.3,8.017,8.017,0,0,1-1.232,2.967.322.322,0,0,0,.061.472c.542.533,1.077,1.073,1.614,1.611.056.056.109.116.155.164l-1.861,1.861a1.535,1.535,0,0,1-.123-.1q-.816-.814-1.629-1.63c-.229-.23-.272-.235-.542-.059a8.087,8.087,0,0,1-2.906,1.193.331.331,0,0,0-.315.381c.008.752,0,1.5,0,2.256,0,.088,0,.176,0,.277H831.89c0-.252,0-.5,0-.751,0-.588-.006-1.177.005-1.765a.344.344,0,0,0-.326-.4,7.83,7.83,0,0,1-2.922-1.214.327.327,0,0,0-.489.056c-.53.544-1.072,1.077-1.61,1.614-.057.057-.117.111-.163.154L824.51,366.5l1.239-1.237c.2-.2.392-.394.59-.589a.261.261,0,0,0,.036-.373,8.115,8.115,0,0,1-1.266-3.058c-.038-.2-.172-.25-.359-.249-.744.005-1.487,0-2.231,0h-.289v-2.65h.26c.744,0,1.488-.005,2.231,0a.345.345,0,0,0,.4-.322,7.84,7.84,0,0,1,1.212-2.923.34.34,0,0,0-.058-.509c-.527-.513-1.042-1.038-1.564-1.556a2.237,2.237,0,0,0-.221-.173l1.933-1.912c.134.147.288.326.454.494.425.431.859.852,1.28,1.286a.329.329,0,0,0,.49.055,7.863,7.863,0,0,1,2.946-1.219.322.322,0,0,0,.3-.368c-.007-.752,0-1.5,0-2.256v-.281h2.637c.005.081.015.167.016.252,0,.752.007,1.5,0,2.256a.343.343,0,0,0,.322.4,7.839,7.839,0,0,1,2.923,1.211.329.329,0,0,0,.491-.047c.531-.544,1.072-1.078,1.609-1.616.057-.057.116-.111.164-.156l1.887,1.892c-.119.111-.258.234-.39.365-.47.466-.932.94-1.407,1.4a.3.3,0,0,0-.055.449,8,8,0,0,1,1.234,2.966.333.333,0,0,0,.386.31c.744-.006,1.487,0,2.231,0Zm-11,6.1a4.786,4.786,0,1,0-4.79-4.651A4.778,4.778,0,0,0,833.227,364.455Z" transform="translate(-822.229 -348.668)"/></g></g></g></svg>