<svg xmlns="http://www.w3.org/2000/svg" width="21" height="22.026" viewBox="0 0 21 22.026"><defs><style>.a{fill:#ff0;}.a,.b,.c{stroke:#000;stroke-miterlimit:10;}.b{fill:#f33;}.c{fill:#ff3;}</style></defs><g transform="translate(-16.793 -655.557)"><g transform="translate(17.293 656.256)"><g transform="translate(4.424)"><path class="a" d="M87.172,695.43a.7.7,0,0,1-.574-1.114c.62-.872.794-1.822.405-2.211-.447-.447-1.736-.158-2.791.9a4.5,4.5,0,0,0-.579.71.7.7,0,0,1-1.178,0,4.5,4.5,0,0,0-.578-.709c-1.055-1.056-2.344-1.345-2.791-.9-.389.389-.215,1.34.405,2.211a.7.7,0,1,1-1.149.817c-1.064-1.5-1.166-3.113-.253-4.025,1.09-1.09,3.192-.7,4.785.9q.087.087.171.178.084-.091.171-.178c1.593-1.593,3.7-1.987,4.785-.9.912.913.811,2.53-.253,4.026A.7.7,0,0,1,87.172,695.43Z" transform="translate(-77.468 -690.493)"/></g><rect class="b" width="20" height="4.511" transform="translate(0 3.628)"/><rect class="b" width="16.552" height="11.842" transform="translate(1.756 8.985)"/><rect class="c" width="16.552" height="1.692" transform="translate(1.756 12.108)"/><rect class="c" width="1.692" height="16.283" transform="translate(9.188 4.473)"/></g></g></svg>