<svg xmlns="http://www.w3.org/2000/svg" width="28.131" height="25.389" viewBox="0 0 28.131 25.389"><defs><style>.a,.b{stroke:#000;stroke-miterlimit:10;}.b{fill:#fff;}</style></defs><g transform="translate(-657.293 -189.719)"><path class="a" d="M688.107,206.457a2.184,2.184,0,0,1,.526-3.034l-1.656-2.365-20.88,14.62,1.656,2.365a2.184,2.184,0,0,1,2.5,3.577l1.656,2.365,20.88-14.62L691.138,207A2.184,2.184,0,0,1,688.107,206.457Z" transform="translate(-8.108 -10.643)"/><g transform="translate(659.51 204.471)"><path class="b" d="M699.911,303.824a2.176,2.176,0,0,1,2.161-2.179l0-2.877-25.4.03,0,2.877a2.176,2.176,0,0,1,.005,4.352l0,2.877,25.4-.03,0-2.877A2.176,2.176,0,0,1,699.911,303.824Z" transform="translate(-676.667 -298.768)"/><g transform="translate(2.925 2.686)"><path d="M699.051,322.491q0,.257-.244.257h-.37q-.245,0-.245-.257l0-3.624h-.926a.3.3,0,0,1-.209-.053.268.268,0,0,1-.054-.191v-.239a.269.269,0,0,1,.053-.191.3.3,0,0,1,.209-.054l2.8,0a.3.3,0,0,1,.209.053.268.268,0,0,1,.054.191v.239a.268.268,0,0,1-.053.191.3.3,0,0,1-.209.054h-1.015Z" transform="translate(-696.998 -318.037)"/><path d="M724.966,322.3q0,.257-.245.257h-.37q-.245,0-.245-.257l0-4.126q0-.257.245-.257h.37q.245,0,.245.257Z" transform="translate(-720.202 -317.849)"/><path d="M737.555,320.806a1.774,1.774,0,0,1-.545,1,1.528,1.528,0,0,1-1.077.4,1.646,1.646,0,0,1-1.353-.616,2.768,2.768,0,0,1-.5-1.776,2.908,2.908,0,0,1,.455-1.771,1.542,1.542,0,0,1,1.31-.608,1.609,1.609,0,0,1,1.1.384,1.4,1.4,0,0,1,.488.97.316.316,0,0,1-.039.218.25.25,0,0,1-.2.063h-.334a.268.268,0,0,1-.185-.051.453.453,0,0,1-.1-.2.959.959,0,0,0-.284-.48.655.655,0,0,0-.463-.17.742.742,0,0,0-.686.469,2.807,2.807,0,0,0-.208,1.174,2.477,2.477,0,0,0,.255,1.179.8.8,0,0,0,.738.474.618.618,0,0,0,.477-.222,1.081,1.081,0,0,0,.256-.478.455.455,0,0,1,.086-.221.29.29,0,0,1,.194-.048h.376q.173,0,.218.071A.339.339,0,0,1,737.555,320.806Z" transform="translate(-728.745 -317.44)"/><path d="M761.9,322.257q0,.257-.245.257h-.364q-.245,0-.245-.257l0-4.126q0-.257.245-.257h.364q.245,0,.245.257l0,1.5,1.461-1.578a.474.474,0,0,1,.158-.132.637.637,0,0,1,.206-.024h.454q.442,0,.144.316l-1.521,1.638,1.549,2.309q.12.161.093.254t-.248.093h-.364a.477.477,0,0,1-.2-.033.41.41,0,0,1-.138-.134l-1.256-1.879-.334.359Z" transform="translate(-751.827 -317.812)"/><path d="M789.763,322.37a.267.267,0,0,1-.053.191.3.3,0,0,1-.209.054l-2.048,0a.529.529,0,0,1-.634-.6l0-3.66a.342.342,0,0,1,.074-.248.362.362,0,0,1,.26-.075l2.3,0a.3.3,0,0,1,.209.053.268.268,0,0,1,.054.191v.239a.268.268,0,0,1-.053.191.3.3,0,0,1-.209.054l-1.785,0v1.021l1.785,0a.313.313,0,0,1,.209.051.267.267,0,0,1,.054.194v.233a.266.266,0,0,1-.053.194.312.312,0,0,1-.209.051l-1.785,0v1.284a.116.116,0,0,0,.018.078.128.128,0,0,0,.084.018l1.731,0a.3.3,0,0,1,.209.053.268.268,0,0,1,.054.191Z" transform="translate(-773.894 -317.95)"/><path d="M811.9,322.359q0,.257-.245.257h-.37q-.245,0-.245-.256l0-3.624h-.925a.3.3,0,0,1-.209-.054.267.267,0,0,1-.054-.191v-.239a.268.268,0,0,1,.053-.191.3.3,0,0,1,.209-.054l2.8,0a.3.3,0,0,1,.209.054.266.266,0,0,1,.054.191v.239a.267.267,0,0,1-.054.191.3.3,0,0,1-.209.054H811.9Z" transform="translate(-793.616 -317.924)"/></g></g></g></svg>