<svg xmlns="http://www.w3.org/2000/svg" width="19.995" height="23.505" viewBox="0 0 19.995 23.505"><defs><style>.a{fill:#fff;stroke:#000;stroke-width:2px;}</style></defs><path class="a" d="M605.188,468.162c0-3.385,0-10.682,0-14.066l.248-.106c1.266,1.3,2.541,2.585,3.791,3.9.359.377.607.463,1,.021a23.771,23.771,0,0,1,1.865-1.864c.352-.318.329-.487,0-.814q-4.167-4.123-8.291-8.289c-.315-.318-.48-.368-.826-.018q-4.155,4.2-8.358,8.36c-.387.383-.326.6.034.931.6.55,1.182,1.122,1.726,1.727.418.465.726.384,1.121-.022,1.079-1.112,2.178-2.206,3.285-3.291.209-.2.356-.536.79-.535v14.087Z" transform="translate(-593.351 -445.681)"/></svg>